<svg width="17" height="17" viewBox="0 0 17 17" fill="none" xmlns="http://www.w3.org/2000/svg">
<path d="M6.5625 10.0781C7.05729 10.5729 7.64323 10.8203 8.32031 10.8203C8.9974 10.8203 9.58333 10.5729 10.0781 10.0781C10.5729 9.58333 10.8203 8.9974 10.8203 8.32031C10.8203 7.64323 10.5729 7.05729 10.0781 6.5625C9.58333 6.06771 8.9974 5.82031 8.32031 5.82031C7.64323 5.82031 7.05729 6.06771 6.5625 6.5625C6.06771 7.05729 5.82031 7.64323 5.82031 8.32031C5.82031 8.9974 6.06771 9.58333 6.5625 10.0781ZM2.44141 2.44141C4.06901 0.813802 6.02865 0 8.32031 0C10.612 0 12.5716 0.813802 14.1992 2.44141C15.8268 4.06901 16.6406 6.02865 16.6406 8.32031V9.53125C16.6406 10.3646 16.3607 11.0677 15.8008 11.6406C15.2409 12.2135 14.5573 12.5 13.75 12.5C12.7344 12.5 11.9141 12.0833 11.2891 11.25C10.4557 12.0833 9.46615 12.5 8.32031 12.5C7.17448 12.5 6.19141 12.0898 5.37109 11.2695C4.55078 10.4492 4.14062 9.46615 4.14062 8.32031C4.14062 7.17448 4.55078 6.19141 5.37109 5.37109C6.19141 4.55078 7.17448 4.14062 8.32031 4.14062C9.46615 4.14062 10.4492 4.55078 11.2695 5.37109C12.0898 6.19141 12.5 7.17448 12.5 8.32031V9.53125C12.5 9.86979 12.6237 10.1693 12.8711 10.4297C13.1185 10.6901 13.4115 10.8203 13.75 10.8203C14.0885 10.8203 14.3815 10.6901 14.6289 10.4297C14.8763 10.1693 15 9.86979 15 9.53125V8.32031C15 6.4974 14.3424 4.92839 13.0273 3.61328C11.7122 2.29818 10.1432 1.64062 8.32031 1.64062C6.4974 1.64062 4.92839 2.29818 3.61328 3.61328C2.29818 4.92839 1.64062 6.4974 1.64062 8.32031C1.64062 10.1432 2.29818 11.7122 3.61328 13.0273C4.92839 14.3424 6.4974 15 8.32031 15H12.5V16.6406H8.32031C6.02865 16.6406 4.06901 15.8268 2.44141 14.1992C0.813802 12.5716 0 10.612 0 8.32031C0 6.02865 0.813802 4.06901 2.44141 2.44141Z" fill="#111827"/>
</svg>
