<svg width="17" height="17" viewBox="0 0 17 17" fill="none" xmlns="http://www.w3.org/2000/svg">
<path d="M5.37109 11.2695C6.19141 12.0898 7.17448 12.5 8.32031 12.5C9.46615 12.5 10.4492 12.0898 11.2695 11.2695C12.0898 10.4492 12.5 9.46615 12.5 8.32031C12.5 7.17448 12.0898 6.19141 11.2695 5.37109C10.4492 4.55078 9.46615 4.14062 8.32031 4.14062C7.17448 4.14062 6.19141 4.55078 5.37109 5.37109C4.55078 6.19141 4.14062 7.17448 4.14062 8.32031C4.14062 9.46615 4.55078 10.4492 5.37109 11.2695ZM5.82031 0H10.8203L12.3438 1.64062H15C15.4427 1.64062 15.8268 1.8099 16.1523 2.14844C16.4779 2.48698 16.6406 2.8776 16.6406 3.32031V13.3203C16.6406 13.763 16.4779 14.1536 16.1523 14.4922C15.8268 14.8307 15.4427 15 15 15H1.64062C1.19792 15 0.813802 14.8307 0.488281 14.4922C0.16276 14.1536 0 13.763 0 13.3203V3.32031C0 2.8776 0.16276 2.48698 0.488281 2.14844C0.813802 1.8099 1.19792 1.64062 1.64062 1.64062H4.29688L5.82031 0ZM6.44531 10.1953C5.92448 9.67448 5.66406 9.04948 5.66406 8.32031C5.66406 7.59115 5.92448 6.96615 6.44531 6.44531C6.96615 5.92448 7.59115 5.66406 8.32031 5.66406C9.04948 5.66406 9.67448 5.92448 10.1953 6.44531C10.7161 6.96615 10.9766 7.59115 10.9766 8.32031C10.9766 9.04948 10.7161 9.67448 10.1953 10.1953C9.67448 10.7161 9.04948 10.9766 8.32031 10.9766C7.59115 10.9766 6.96615 10.7161 6.44531 10.1953Z" fill="#111827"/>
</svg>
