<svg width="17" height="17" viewBox="0 0 17 17" fill="none" xmlns="http://www.w3.org/2000/svg">
<path d="M10 3.32031V1.64062H6.64062V3.32031H10ZM15 3.32031C15.4688 3.32031 15.8594 3.48307 16.1719 3.80859C16.4844 4.13411 16.6406 4.53125 16.6406 5V14.1406C16.6406 14.6094 16.4844 15.0065 16.1719 15.332C15.8594 15.6576 15.4688 15.8203 15 15.8203H1.64062C1.17188 15.8203 0.78125 15.6576 0.46875 15.332C0.15625 15.0065 0 14.6094 0 14.1406V5C0 4.53125 0.15625 4.13411 0.46875 3.80859C0.78125 3.48307 1.17188 3.32031 1.64062 3.32031H5V1.64062C5 1.17188 5.15625 0.78125 5.46875 0.46875C5.78125 0.15625 6.17188 0 6.64062 0H10C10.4688 0 10.8594 0.15625 11.1719 0.46875C11.4844 0.78125 11.6406 1.17188 11.6406 1.64062V3.32031H15Z" fill="#111827"/>
</svg>
