<svg width="17" height="17" viewBox="0 0 17 17" fill="none" xmlns="http://www.w3.org/2000/svg">
<path d="M8.32031 0C7.17448 0 6.10026 0.214844 5.09766 0.644531C4.09505 1.07422 3.20964 1.67318 2.44141 2.44141C1.67318 3.20964 1.07422 4.09505 0.644531 5.09766C0.214844 6.10026 0 7.17448 0 8.32031C0 9.46615 0.214844 10.5404 0.644531 11.543C1.07422 12.5456 1.67318 13.431 2.44141 14.1992C3.20964 14.9674 4.09505 15.5664 5.09766 15.9961C6.10026 16.4258 7.17448 16.6406 8.32031 16.6406C9.46615 16.6406 10.5404 16.4258 11.543 15.9961C12.5456 15.5664 13.431 14.9674 14.1992 14.1992C14.9674 13.431 15.5664 12.5456 15.9961 11.543C16.4258 10.5404 16.6406 9.46615 16.6406 8.32031C16.6406 7.17448 16.4258 6.10026 15.9961 5.09766C15.5664 4.09505 14.9674 3.20964 14.1992 2.44141C13.431 1.67318 12.5456 1.07422 11.543 0.644531C10.5404 0.214844 9.46615 0 8.32031 0ZM6.25 12.0703V4.57031L12.0703 8.32031L6.25 12.0703Z" fill="#111827"/>
</svg>
